# xmcd
#
# Track frame offsets: 
#        150
#        14078
#        27812
#        39950
#        49782
#        62307
#        75720
#        89389
#        102788
#        116312
#        129955
#        141650
#        154628
#        172785
#        181767
#        198105
#        208223
#        219170
#        229623
#        246310
#        259047
#        270109
#        284979
#        296539
#        306838
#        320655
#        333204
#        346526
#
# Disc length: 4786 seconds
#
# Revision: 0
# Processed by: cddbd v1.5.2PL0 Copyright (c) Steve Scherf et al.
# Submitted via: ExactAudioCopy v0.95b3
#
DISCID=7f12b01c
DTITLE=Va  - 1966 Best Year Ever - (Oct-Dec) - Disc 4
DYEAR=1900
DGENRE=
TTITLE0=Psychotic Reaction - Count Five
TTITLE1=Poor Side of Town - Johnny Rivers
TTITLE2=Walk Away Renee - Left Banke
TTITLE3=Mr Spaceman - The Byrds
TTITLE4=Last Train to Clarksville - Monkees
TTITLE5=Just Like a Woman - Bob Dylan
TTITLE6=Reach Out I'll Be There - Four Tops
TTITLE7=96 Tears - ? and the Mysterians
TTITLE8=Great Airplane Strike - Paul Revere and the Raiders
TTITLE9=I'm Your Puppet - James and Bobby Purify
TTITLE10=Have You Seen Your Mother Baby - Rolling Stones
TTITLE11=Stop Stop Stop - Hollies
TTITLE12=See See Rider - Animals
TTITLE13=Talk Talk - Music Machine
TTITLE14=Good Vibrations - Beach Boys
TTITLE15=Rain on the Roof - Lovin Spoonful
TTITLE16=Winchester Cathedral - New Vaudeville Band
TTITLE17=A Hazy Shade of Winter - Simon and Garfunkel
TTITLE18=Mellow Yellow - Donovan
TTITLE19=You Keep Me Hangin' On - Supremes
TTITLE20=Lady Godiva - Peter and Gordon
TTITLE21=Devil With a Blue Dress On - Mitch Ryder
TTITLE22=I'm not Your Steppin' Stone - Monkees
TTITLE23=We Ain't Got Nuthin' Yet - Blues Magoos
TTITLE24=Good Thing - Paul Revere and the Raiders
TTITLE25=Snoopy vs the Red Baron - Royal Guardsmen
TTITLE26=Happenings Ten Years Time Ago - Yardbirds
TTITLE27=I'm a Believer - Monkees
EXTD=
EXTT0=
EXTT1=
EXTT2=
EXTT3=
EXTT4=
EXTT5=
EXTT6=
EXTT7=
EXTT8=
EXTT9=
EXTT10=
EXTT11=
EXTT12=
EXTT13=
EXTT14=
EXTT15=
EXTT16=
EXTT17=
EXTT18=
EXTT19=
EXTT20=
EXTT21=
EXTT22=
EXTT23=
EXTT24=
EXTT25=
EXTT26=
EXTT27=
PLAYORDER=
